<svg xmlns="http://www.w3.org/2000/svg" version="1.1" xmlns:xlink="http://www.w3.org/1999/xlink" xmlns:svgjs="http://svgjs.dev/svgjs" width="1920" height="1080" preserveAspectRatio="none" viewBox="0 0 1920 1080"><g mask="url(&quot;#SvgjsMask1016&quot;)" fill="none"><rect width="1920" height="1080" x="0" y="0" fill="rgba(20, 21, 22, 1)"></rect><path d="M270 217.89C212.05 217.89 163.95 218.11 151.2 270C124.38 379.16 153.42 411.06 190.86 540C212.82 615.61 223.53 679.09 270 679.09C323.49 679.09 372.61 622.64 390.79 540C417.61 418.09 403.68 386.48 360 270C343.28 225.42 316.45 217.89 270 217.89" stroke="rgba(70, 75, 75, 1)" stroke-width="2"></path><path d="M523.47 0C540.41 2.03 529.92 32.4 540 32.4C551.69 32.4 547.03 2.4 567 0C682.03 -13.8 688.5 0 810 0C945 0 945 0 1080 0C1215 0 1215 0 1350 0C1485 0 1485 0 1620 0C1755 0 1755 0 1890 0C2025 0 2092.5 -67.5 2160 0C2227.5 67.5 2160 135 2160 270C2160 405 2160 405 2160 540C2160 675 2160 675 2160 810C2160 945 2221.19 1006.19 2160 1080C2109.28 1141.19 1994.12 1140.94 1936.18 1080C1865.76 1005.94 1924.68 942.94 1903.28 810C1901.59 799.51 1898.38 793.13 1890 793.13C1876.17 793.13 1863.13 793.55 1858.85 810C1825.79 936.99 1884.99 1001.25 1815.32 1080C1765.56 1136.25 1717.66 1080 1620 1080C1485 1080 1485 1080 1350 1080C1215 1080 1215 1080 1080 1080C945 1080 945 1080 810 1080C675 1080 675 1080 540 1080C405 1080 405 1080 270 1080C135 1080 67.5 1147.5 0 1080C-67.5 1012.5 0 945 0 810C0 675 0 675 0 540C0 405 0 405 0 270C0 135 -67.5 67.5 0 0C67.5 -67.5 135 0 270 0C396.74 0 405.41 -14.17 523.47 0" stroke="rgba(70, 75, 75, 1)" stroke-width="2"></path><path d="M1080 211.3C1032.47 211.3 998.78 223.9 991.48 270C972.75 388.25 997.82 408.38 1027.95 540C1042.08 601.76 1029.66 650.73 1080 656.76C1190.69 670.02 1216.1 574.79 1350 578.57C1486.1 582.41 1504.79 684.39 1620 672C1684.12 665.1 1708.66 605.33 1708.66 540C1708.66 477.46 1684.59 435.7 1620 416.25C1505.26 381.7 1461.09 474.12 1350 432C1268.23 401 1308.09 330.33 1234.29 270C1173.09 219.98 1153.87 211.3 1080 211.3" stroke="rgba(70, 75, 75, 1)" stroke-width="2"></path><path d="M270 99.47C181.13 99.47 81 26.39 81 0C81 -23.35 175.5 0 270 0C327.86 0 385.71 -21.45 385.71 0C385.71 28.29 333.49 99.47 270 99.47" stroke="rgba(70, 75, 75, 1)" stroke-width="2"></path><path d="M582.63 270C646.38 119.35 684 128.24 792 0C797.69 -6.76 801 0 810 0C945 0 945 0 1080 0C1215 0 1215 0 1350 0C1485 0 1485 0 1620 0C1742.72 0 1862.55 -55.14 1865.45 0C1869.65 79.86 1751.88 137.87 1634.21 270C1629.15 275.68 1627.32 275.63 1620 275.63C1607.94 275.63 1606.32 276.26 1595.45 270C1471.32 198.45 1482.8 154.03 1350 120C1225.08 87.99 1204.57 98.1 1080 137.93C969.98 173.1 911.65 177.05 880.82 270C844.97 378.09 930.35 403.05 946.63 540C962.44 673.05 901.02 709.48 945 810C967.71 861.9 1018.34 844.84 1080 844.84C1099.68 844.84 1089.02 821.74 1107.69 810C1224.02 736.82 1228.1 675 1350 675C1476.96 675 1490.74 731.81 1605.41 810C1625.74 823.86 1613.9 834.23 1620 859.09C1647.04 969.23 1671.7 990.04 1671.7 1080C1671.7 1100.5 1645.85 1080 1620 1080C1485 1080 1485 1080 1350 1080C1215 1080 1215 1080 1080 1080C981.49 1080 948.93 1127.12 882.97 1080C813.93 1030.69 840.46 887.14 810 887.14C780.7 887.14 826.94 1034.65 763.45 1080C691.94 1131.08 651.72 1080 540 1080C437.14 1080 367.31 1137.79 334.29 1080C290.17 1002.79 332.31 932.65 385.71 810C435.17 696.4 470.6 712.91 540 607.5C559.48 577.91 559.03 575.25 563.48 540C580.34 406.5 532.12 389.35 582.63 270" stroke="rgba(70, 75, 75, 1)" stroke-width="2"></path><path d="M2160 127.89C2086.41 127.89 1939.09 34.28 1939.09 0C1939.09 -29.67 2090.04 -40.5 2160 0C2200.5 23.45 2196.87 127.89 2160 127.89" stroke="rgba(70, 75, 75, 1)" stroke-width="2"></path><path d="M0 380C19.53 380 35.87 460.66 74.48 540C140.5 675.66 179.07 667.69 209.25 810C236.33 937.69 250.62 1000.5 189 1080C145.99 1135.5 38.91 1135.59 0 1080C-55.59 1000.59 0 945 0 810C0 675 0 675 0 540C0 460 -17.71 380 0 380" stroke="rgba(70, 75, 75, 1)" stroke-width="2"></path><path d="M1809.4 540C1809.4 471.08 1824.63 433.85 1890 397.89C1999.93 337.42 2080.68 305.39 2160 347.14C2215.68 376.45 2160 443.57 2160 540C2160 675 2160 675 2160 810C2160 945 2205 990 2160 1080C2137.5 1125 2049.33 1124.97 2025 1080C1976.3 989.97 2052.69 932.73 2013.93 810C1985.19 718.98 1950.49 732.36 1890 652.5C1848.23 597.36 1809.4 598.38 1809.4 540" stroke="rgba(70, 75, 75, 1)" stroke-width="2"></path><path d="M1080 64.57C1013.13 64.57 948 17.01 948 0C948 -15.28 1014 0 1080 0C1156.15 0 1232.31 -15.48 1232.31 0C1232.31 16.81 1155.28 64.57 1080 64.57" stroke="rgba(70, 75, 75, 1)" stroke-width="2"></path><path d="M710.22 540C710.22 456.13 769.45 363.46 810 363.46C846.99 363.46 865.3 453.47 865.3 540C865.3 602.14 845.58 660.79 810 660.79C768.04 660.79 710.22 604.8 710.22 540" stroke="rgba(70, 75, 75, 1)" stroke-width="2"></path><path d="M0 702C10.46 702 32.43 753.48 40.5 810C59.43 942.48 70.88 967.48 54 1080C50.63 1102.48 4.5 1102.5 0 1080C-22.5 967.5 0 945 0 810C0 756 -9.79 702 0 702" stroke="rgba(70, 75, 75, 1)" stroke-width="2"></path><path d="M1280.77 810C1280.77 783.86 1315.17 771.43 1350 771.43C1386.27 771.43 1422.97 783.56 1422.97 810C1422.97 846.4 1385.92 897.1 1350 897.1C1314.82 897.1 1280.77 846.7 1280.77 810" stroke="rgba(70, 75, 75, 1)" stroke-width="2"></path><path d="M2124.59 810C2136.18 674.48 2151.11 540 2160 540C2168.81 540 2160 675 2160 810C2160 945 2179.72 964.72 2160 1080C2156.63 1099.72 2116.4 1099.7 2113.82 1080C2098.7 964.7 2113.09 944.48 2124.59 810" stroke="rgba(70, 75, 75, 1)" stroke-width="2"></path><path d="M441.43 1080C441.43 1022.35 489.15 907.5 540 907.5C591.97 907.5 647.07 1023.53 647.07 1080C647.07 1109.78 593.54 1080 540 1080C490.72 1080 441.43 1108.6 441.43 1080" stroke="rgba(70, 75, 75, 1)" stroke-width="2"></path><path d="M1065.41 1080C1065.41 1074.7 1071.68 1062.58 1080 1062.58C1090.71 1062.58 1103.48 1075.17 1103.48 1080C1103.48 1083.88 1091.74 1080 1080 1080C1072.7 1080 1065.41 1083.41 1065.41 1080" stroke="rgba(70, 75, 75, 1)" stroke-width="2"></path></g><defs><mask id="SvgjsMask1016"><rect width="1920" height="1080" fill="#ffffff"></rect></mask></defs></svg>